<?xml version="1.0" encoding="utf-8"?>
<!-- Generator: Adobe Illustrator 17.1.0, SVG Export Plug-In . SVG Version: 6.00 Build 0)  -->
<!DOCTYPE svg PUBLIC "-//W3C//DTD SVG 1.1//EN" "http://www.w3.org/Graphics/SVG/1.1/DTD/svg11.dtd">
<svg version="1.1" id="Layer_1" xmlns="http://www.w3.org/2000/svg" xmlns:xlink="http://www.w3.org/1999/xlink" x="0px" y="0px"
	 viewBox="0 0 612 349.412" enable-background="new 0 0 612 349.412" xml:space="preserve">
<rect x="-2.5" y="1.912" fill="#E4E4E4" width="614.5" height="18"/>
<rect x="0" y="19.44" fill="#7D66AD" width="612" height="329.972"/>
<g opacity="0.1">
	<defs>
		<rect id="SVGID_1_" x="-1.293" y="19.019" opacity="0.1" width="614.293" height="422.027"/>
	</defs>
	<clipPath id="SVGID_2_">
		<use xlink:href="#SVGID_1_"  overflow="visible"/>
	</clipPath>
	<polygon clip-path="url(#SVGID_2_)" fill="#7D6BAC" points="-714.825,70.834 -722.401,70.834 -722.401,489.538 -714.825,492.786 	
		"/>
	<polygon clip-path="url(#SVGID_2_)" fill="#7D6BAC" points="-714.825,682.477 -714.825,492.786 -722.401,489.538 -722.401,685.545 
		-296.555,685.545 -302.019,682.477 	"/>
	<polygon clip-path="url(#SVGID_2_)" fill="#7D6BAC" points="1452.018,682.477 1450.787,685.545 2108.898,685.545 2107.888,682.477 
			"/>
	<polygon clip-path="url(#SVGID_2_)" fill="#7D6BAC" points="934.365,682.477 931.958,685.545 1450.787,685.545 1452.018,682.477 	
		"/>
	<polygon clip-path="url(#SVGID_2_)" fill="#7D6BAC" points="-302.019,682.477 -296.555,685.545 -216.485,685.545 -214.433,682.477 
			"/>
	<polygon clip-path="url(#SVGID_2_)" fill="#7D6BAC" points="903.922,682.477 905.869,685.545 931.958,685.545 934.365,682.477 	"/>
	<polygon clip-path="url(#SVGID_2_)" fill="#7D6BAC" points="2108.898,685.545 2637.371,685.545 2637.371,682.477 2107.888,682.477 
			"/>
	<polygon clip-path="url(#SVGID_2_)" fill="#A89BC8" points="-347.689,20.834 -460.234,20.834 -473.353,553.906 -302.019,632.477 
		-214.433,632.477 85.019,266.206 	"/>
	<polyline clip-path="url(#SVGID_2_)" fill="#514678" points="557.807,186.195 465.417,635.142 -214.433,631.376 85.019,265.144 
		85.019,265.144 85.019,265.144 285.673,19.811 429.465,19.811 506.29,118.697 	"/>
	<polygon clip-path="url(#SVGID_2_)" fill="#7D6BAC" points="557.807,186.598 908.739,635.545 465.417,635.545 	"/>
	<polygon clip-path="url(#SVGID_2_)" fill="#514678" points="1521.05,70.834 1295.64,305.795 1295.64,305.795 1295.64,305.795 
		934.365,682.477 1452.018,682.477 1751.889,70.834 	"/>
	<polyline clip-path="url(#SVGID_2_)" fill="#A89BC8" points="519.661,136.916 903.922,632.477 934.365,632.477 1312.597,237.978 	
		"/>
	<polyline clip-path="url(#SVGID_2_)" fill="#312866" points="519.661,136.993 1312.597,238.184 1521.05,20.834 429.465,20.834 
		557.807,186.285 	"/>
	<polygon clip-path="url(#SVGID_2_)" fill="#7D6BAC" points="2637.371,682.477 2644,682.477 2644,633.103 2637.371,627.251 	"/>
	<polygon clip-path="url(#SVGID_2_)" fill="#514678" points="-473.353,603.894 -473.202,603.894 -714.825,492.786 -714.825,682.477 
		-302.019,682.477 -473.353,603.817 	"/>
	<polygon clip-path="url(#SVGID_2_)" fill="#7D6BAC" points="2637.371,70.834 1964.81,70.834 2637.371,627.251 	"/>
	<polygon clip-path="url(#SVGID_2_)" fill="#7D6BAC" points="1961.778,67.766 1964.81,70.834 2637.371,70.834 2637.371,627.251 
		2644,633.103 2644,67.766 	"/>
	<polygon clip-path="url(#SVGID_2_)" fill="#312866" points="285.673,20.834 -347.689,20.834 85.019,266.373 	"/>
	<polygon clip-path="url(#SVGID_2_)" fill="#A89BC8" points="1964.81,70.834 1861.656,70.834 2107.888,682.477 2637.371,682.477 
		2637.371,627.251 	"/>
	<polygon clip-path="url(#SVGID_2_)" fill="#7D6BAC" points="-347.689,70.834 -352.114,67.766 -460.172,67.766 -460.234,70.834 	"/>
	<polygon clip-path="url(#SVGID_2_)" fill="#7D6BAC" points="-473.202,603.984 -460.234,70.834 -714.825,70.834 -714.825,492.786 	
		"/>
	<polygon clip-path="url(#SVGID_2_)" fill="#7D6BAC" points="-460.172,67.766 -714.825,67.766 -714.825,70.834 -460.234,70.834 	"/>
	<polygon clip-path="url(#SVGID_2_)" fill="#7D6BAC" points="1751.889,70.834 1753.12,67.766 1523.457,67.766 1521.05,70.834 	"/>
	<polygon clip-path="url(#SVGID_2_)" fill="#7D6BAC" points="1861.656,70.834 1964.81,70.834 1961.778,67.766 1860.646,67.766 	"/>
	<polygon clip-path="url(#SVGID_2_)" fill="#7D6BAC" points="1753.12,67.766 1751.889,70.834 1861.656,70.834 1860.646,67.766 	"/>
	<polygon clip-path="url(#SVGID_2_)" fill="#312866" points="1452.018,682.477 2107.888,682.477 1861.656,70.834 1751.889,70.834 	
		"/>
</g>
<line fill="none" stroke="#5052A3" stroke-miterlimit="10" x1="0" y1="20.412" x2="609" y2="20.412"/>
<g>
</g>
<g>
</g>
<g>
</g>
<g>
</g>
<g>
</g>
<g>
</g>
</svg>
